# xmcd
#
# Track frame offsets: 
#        150
#        5634
#        10722
#        17535
#        22574
#        28989
#        35148
#        38273
#        46458
#        53568
#        64052
#        73426
#        82500
#
# Disc length: 1142 seconds
#
# Revision: 0
# Processed by: cddbd v1.5.2PL0 Copyright (c) Steve Scherf et al.
# Submitted via: ExactAudioCopy v0.99pb4
#
DISCID=9104740d
DTITLE=Never Healed - Never Healed
DYEAR=2008
DGENRE=Hardcore
TTITLE0=Forever Never Ends
TTITLE1=Ruins
TTITLE2=Lonely Crawls
TTITLE3=Of Wind And Smoke
TTITLE4=Waits To Destroy
TTITLE5=Where The Crosses Grow
TTITLE6=We Are Ruins
TTITLE7=Far We Fall
TTITLE8=The March
TTITLE9=War All The Time
TTITLE10=Untitled I
TTITLE11=Untitled II
TTITLE12=No One
EXTD=
EXTT0=
EXTT1=
EXTT2=
EXTT3=
EXTT4=
EXTT5=
EXTT6=
EXTT7=
EXTT8=
EXTT9=
EXTT10=
EXTT11=
EXTT12=
PLAYORDER=
